<?xml version="1.0" encoding="UTF-8"?>
<svg width="50" height="50" fill="none" version="1.1" viewBox="0 0 50 50" xmlns="http://www.w3.org/2000/svg">
 <g transform="matrix(.96182 0 0 .94017 -225.73 -11.817)" clip-path="url(#clip0_1_13)">
  <path d="m282.72 44.161-2.202-2.4361c-8e-3 -0.0084-0.016-0.0084-0.025-0.0084-8e-3 0-0.016 0-0.024 0.0084l-9.014 8.8217c-0.371 0.3409-0.923 0.3242-1.27-0.0416-0.346-0.3658-0.338-0.9479 0.025-1.2971l11.364-12.197c1.492-1.6463 2.399-3.7748 2.556-5.9948 0.149-2.2282-0.453-4.4565-1.715-6.294-1.666-2.3863-3.579-4.6063-5.674-6.6101-3.587-3.5669-9.293-3.6584-12.996-0.2162l-2.523 2.3614c-9e-3 0.0083-9e-3 0.0166-9e-3 0.0166s0 0.0166 9e-3 0.0249l5.657 5.9782c2.737 2.8934 2.663 7.5246-0.174 10.318l-8.906 8.7885c-2.416 2.3862-2.911 6.0945-1.195 9.0378 2.267 3.9079 5.549 7.1173 9.491 9.2874 1.089 0.5986 2.301 0.8979 3.521 0.8979 1.015 0 2.029-0.2078 2.969-0.6319 3.596-1.6047 6.861-3.8163 9.69-6.5768 3.595-3.5835 3.793-9.4037 0.445-13.237z" fill="#0083b7"/>
  <path d="m266.7 31.024c0-1.4883-0.569-2.8852-1.608-3.9328-0.033-0.0333-0.074-0.0748-0.107-0.1081l-9.929-9.5284c-1.162-1.1142-2.68-1.7461-4.288-1.7877-1.599-0.0332-3.15 0.5239-4.362 1.5881l-7.908 6.9343c-1.608 1.4052-2.532 3.4422-2.532 5.5874v30.531c0 2.0454 1.658 3.7166 3.686 3.7166h9.896c2.028 0 3.686-1.6712 3.686-3.7166v-11.956c0-0.9644 0.388-1.9123 1.072-2.5941l10.77-10.801c1.039-1.0476 1.616-2.4444 1.624-3.9327zm-12.988-0.7982c0 1.6629-1.344 3.0181-2.993 3.0181s-2.994-1.3552-2.994-3.0181 1.345-3.0182 2.994-3.0182 2.993 1.3553 2.993 3.0182z" fill="#fc0"/>
 </g>
 <defs>
  <clipPath id="clip0_1_13">
   <rect transform="translate(236,5)" width="49.091" height="70" fill="#fff"/>
  </clipPath>
 </defs>
</svg>
